<svg xmlns="http://www.w3.org/2000/svg" xmlns:xlink="http://www.w3.org/1999/xlink" width="50" zoomAndPan="magnify" viewBox="0 0 37.5 37.499999" height="50" preserveAspectRatio="xMidYMid meet" version="1.0"><defs><clipPath id="79e9556fcf"><path d="M 0 0 L 37.007812 0 L 37.007812 37.007812 L 0 37.007812 Z M 0 0 " clip-rule="nonzero"/></clipPath></defs><path fill="#ffac42" d="M 29.289062 2.5 L 21.347656 2.5 C 21.171875 2.496094 21.023438 2.558594 20.898438 2.679688 C 20.773438 2.800781 20.710938 2.949219 20.710938 3.125 L 20.710938 11.046875 C 20.710938 11.222656 20.773438 11.371094 20.898438 11.496094 C 21.019531 11.621094 21.171875 11.683594 21.347656 11.683594 L 29.257812 11.683594 C 29.433594 11.679688 29.582031 11.617188 29.707031 11.492188 C 29.828125 11.371094 29.890625 11.222656 29.894531 11.046875 L 29.894531 3.125 C 29.890625 2.957031 29.832031 2.8125 29.714844 2.691406 C 29.597656 2.570312 29.457031 2.507812 29.289062 2.5 Z M 28.652344 3.757812 L 28.652344 10.414062 L 22 10.414062 L 22 3.757812 Z M 28.652344 3.757812 " fill-opacity="1" fill-rule="nonzero"/><g clip-path="url(#79e9556fcf)"><path fill="#ffac42" d="M 34.308594 3.730469 L 32.382812 3.730469 L 32.382812 0.632812 C 32.386719 0.464844 32.332031 0.320312 32.214844 0.195312 C 32.097656 0.0742188 31.957031 0.0078125 31.789062 0 L 18.875 0 C 18.699219 0 18.550781 0.0625 18.425781 0.1875 C 18.300781 0.308594 18.242188 0.460938 18.242188 0.632812 L 18.242188 3.730469 L 3.203125 3.730469 C 2.804688 3.730469 2.421875 3.808594 2.054688 3.960938 C 1.6875 4.113281 1.363281 4.332031 1.078125 4.613281 C 0.796875 4.890625 0.582031 5.214844 0.425781 5.582031 C 0.273438 5.949219 0.195312 6.332031 0.191406 6.730469 L 0.191406 26.492188 C 0.191406 26.890625 0.269531 27.273438 0.421875 27.640625 C 0.574219 28.011719 0.792969 28.335938 1.074219 28.617188 C 1.355469 28.902344 1.679688 29.117188 2.050781 29.269531 C 2.417969 29.421875 2.804688 29.5 3.203125 29.5 L 11.558594 29.5 L 11.558594 32.382812 L 7.757812 32.382812 C 7.585938 32.382812 7.4375 32.445312 7.3125 32.566406 C 7.191406 32.6875 7.128906 32.835938 7.125 33.007812 L 7.125 36.242188 L 5.335938 36.242188 C 5.148438 36.21875 4.980469 36.269531 4.839844 36.394531 C 4.695312 36.519531 4.625 36.679688 4.625 36.871094 C 4.625 37.0625 4.695312 37.21875 4.839844 37.34375 C 4.980469 37.472656 5.148438 37.523438 5.335938 37.5 L 32.183594 37.5 C 32.371094 37.523438 32.539062 37.472656 32.679688 37.34375 C 32.824219 37.21875 32.894531 37.0625 32.894531 36.871094 C 32.894531 36.679688 32.824219 36.519531 32.679688 36.394531 C 32.539062 36.269531 32.371094 36.21875 32.183594 36.242188 L 30.394531 36.242188 L 30.394531 32.960938 C 30.390625 32.789062 30.328125 32.640625 30.203125 32.519531 C 30.082031 32.398438 29.933594 32.335938 29.757812 32.335938 L 25.960938 32.335938 L 25.960938 29.453125 L 34.308594 29.453125 C 34.707031 29.453125 35.089844 29.375 35.460938 29.222656 C 35.832031 29.070312 36.15625 28.851562 36.4375 28.570312 C 36.722656 28.289062 36.941406 27.964844 37.09375 27.59375 C 37.25 27.226562 37.324219 26.84375 37.328125 26.441406 L 37.328125 6.730469 C 37.324219 6.332031 37.242188 5.949219 37.089844 5.582031 C 36.933594 5.214844 36.714844 4.890625 36.433594 4.609375 C 36.152344 4.332031 35.824219 4.113281 35.457031 3.960938 C 35.089844 3.808594 34.707031 3.730469 34.308594 3.730469 Z M 19.507812 12.914062 L 19.507812 1.269531 L 31.152344 1.269531 L 31.152344 12.914062 Z M 36.058594 26.492188 C 36.058594 26.722656 36.011719 26.945312 35.925781 27.160156 C 35.835938 27.375 35.710938 27.5625 35.546875 27.726562 C 35.382812 27.890625 35.191406 28.019531 34.976562 28.105469 C 34.761719 28.195312 34.539062 28.242188 34.308594 28.242188 L 3.203125 28.242188 C 2.96875 28.238281 2.75 28.195312 2.535156 28.105469 C 2.320312 28.015625 2.132812 27.886719 1.96875 27.722656 C 1.808594 27.558594 1.683594 27.371094 1.59375 27.15625 C 1.503906 26.945312 1.460938 26.722656 1.460938 26.492188 L 1.460938 6.730469 C 1.460938 6.5 1.507812 6.28125 1.597656 6.066406 C 1.6875 5.855469 1.8125 5.667969 1.976562 5.507812 C 2.136719 5.34375 2.324219 5.21875 2.539062 5.132812 C 2.75 5.042969 2.972656 5 3.203125 5 L 18.242188 5 L 18.242188 9.453125 L 12.980469 9.453125 C 12.929688 9.285156 12.859375 9.125 12.773438 8.976562 C 12.683594 8.824219 12.578125 8.6875 12.457031 8.5625 C 12.335938 8.4375 12.203125 8.328125 12.054688 8.234375 C 11.910156 8.140625 11.753906 8.066406 11.589844 8.011719 C 11.421875 7.953125 11.253906 7.917969 11.082031 7.902344 C 10.90625 7.886719 10.734375 7.890625 10.5625 7.917969 C 10.390625 7.941406 10.222656 7.988281 10.0625 8.054688 C 9.898438 8.121094 9.746094 8.203125 9.605469 8.304688 C 9.464844 8.40625 9.335938 8.523438 9.222656 8.652344 C 9.109375 8.785156 9.011719 8.929688 8.933594 9.085938 C 8.851562 9.238281 8.792969 9.402344 8.75 9.570312 C 8.710938 9.742188 8.691406 9.914062 8.691406 10.085938 C 8.691406 10.261719 8.710938 10.433594 8.75 10.601562 C 8.792969 10.769531 8.851562 10.933594 8.933594 11.089844 C 9.011719 11.242188 9.109375 11.386719 9.222656 11.519531 C 9.335938 11.652344 9.464844 11.765625 9.605469 11.867188 C 9.746094 11.96875 9.898438 12.054688 10.0625 12.117188 C 10.222656 12.183594 10.390625 12.230469 10.5625 12.253906 C 10.734375 12.28125 10.90625 12.285156 11.082031 12.269531 C 11.253906 12.253906 11.421875 12.21875 11.589844 12.160156 C 11.753906 12.105469 11.910156 12.03125 12.054688 11.9375 C 12.203125 11.84375 12.335938 11.734375 12.457031 11.609375 C 12.578125 11.484375 12.683594 11.347656 12.773438 11.195312 C 12.859375 11.046875 12.929688 10.886719 12.980469 10.722656 L 18.242188 10.722656 L 18.242188 13.539062 C 18.242188 13.714844 18.300781 13.863281 18.425781 13.988281 C 18.550781 14.109375 18.699219 14.171875 18.875 14.171875 L 19.933594 14.171875 L 19.933594 16.597656 C 19.765625 16.644531 19.605469 16.714844 19.457031 16.804688 C 19.304688 16.890625 19.167969 16.996094 19.042969 17.117188 C 18.917969 17.238281 18.808594 17.371094 18.714844 17.519531 C 18.621094 17.664062 18.542969 17.820312 18.488281 17.988281 C 18.429688 18.152344 18.394531 18.320312 18.378906 18.496094 C 18.363281 18.667969 18.367188 18.839844 18.394531 19.015625 C 18.417969 19.1875 18.464844 19.355469 18.527344 19.515625 C 18.59375 19.675781 18.675781 19.828125 18.777344 19.972656 C 18.878906 20.113281 18.996094 20.242188 19.128906 20.355469 C 19.261719 20.46875 19.40625 20.566406 19.558594 20.644531 C 19.714844 20.726562 19.878906 20.785156 20.046875 20.828125 C 20.214844 20.867188 20.386719 20.886719 20.5625 20.886719 C 20.738281 20.886719 20.910156 20.867188 21.078125 20.828125 C 21.246094 20.785156 21.410156 20.726562 21.566406 20.644531 C 21.71875 20.566406 21.863281 20.46875 21.996094 20.355469 C 22.128906 20.242188 22.246094 20.113281 22.347656 19.972656 C 22.449219 19.828125 22.53125 19.675781 22.597656 19.515625 C 22.660156 19.355469 22.707031 19.1875 22.730469 19.015625 C 22.757812 18.839844 22.761719 18.667969 22.746094 18.496094 C 22.730469 18.320312 22.695312 18.152344 22.636719 17.988281 C 22.582031 17.820312 22.503906 17.664062 22.410156 17.519531 C 22.316406 17.371094 22.207031 17.238281 22.082031 17.117188 C 21.957031 16.996094 21.820312 16.890625 21.667969 16.804688 C 21.519531 16.714844 21.359375 16.644531 21.191406 16.597656 L 21.191406 14.171875 L 27.796875 14.171875 L 27.796875 17.421875 L 24.730469 20.492188 C 24.605469 20.617188 24.546875 20.765625 24.546875 20.941406 L 24.546875 22.308594 C 24.382812 22.359375 24.222656 22.425781 24.070312 22.515625 C 23.921875 22.601562 23.78125 22.707031 23.65625 22.828125 C 23.53125 22.949219 23.421875 23.082031 23.328125 23.230469 C 23.234375 23.378906 23.160156 23.535156 23.101562 23.699219 C 23.046875 23.863281 23.011719 24.03125 22.996094 24.207031 C 22.980469 24.378906 22.984375 24.554688 23.007812 24.726562 C 23.035156 24.898438 23.078125 25.066406 23.144531 25.226562 C 23.210938 25.390625 23.292969 25.539062 23.394531 25.683594 C 23.496094 25.824219 23.613281 25.953125 23.746094 26.066406 C 23.875 26.179688 24.019531 26.277344 24.175781 26.355469 C 24.332031 26.4375 24.492188 26.496094 24.660156 26.539062 C 24.832031 26.578125 25.003906 26.601562 25.179688 26.601562 C 25.351562 26.601562 25.523438 26.578125 25.695312 26.539062 C 25.863281 26.496094 26.027344 26.4375 26.179688 26.355469 C 26.335938 26.277344 26.480469 26.179688 26.609375 26.066406 C 26.742188 25.953125 26.859375 25.824219 26.960938 25.683594 C 27.0625 25.539062 27.144531 25.390625 27.210938 25.226562 C 27.277344 25.066406 27.320312 24.898438 27.347656 24.726562 C 27.371094 24.554688 27.375 24.378906 27.359375 24.207031 C 27.34375 24.03125 27.308594 23.863281 27.253906 23.699219 C 27.195312 23.535156 27.121094 23.378906 27.027344 23.230469 C 26.933594 23.082031 26.824219 22.949219 26.699219 22.828125 C 26.574219 22.707031 26.433594 22.601562 26.285156 22.515625 C 26.132812 22.425781 25.976562 22.359375 25.808594 22.308594 L 25.808594 21.203125 L 28.882812 18.132812 C 29.003906 18.007812 29.066406 17.855469 29.066406 17.683594 L 29.066406 14.171875 L 31.789062 14.171875 C 31.964844 14.171875 32.113281 14.109375 32.234375 13.988281 C 32.355469 13.863281 32.417969 13.714844 32.414062 13.539062 L 32.414062 5 L 34.335938 5 C 34.566406 5.003906 34.785156 5.046875 34.996094 5.136719 C 35.203125 5.226562 35.390625 5.351562 35.550781 5.511719 C 35.710938 5.675781 35.835938 5.859375 35.925781 6.070312 C 36.011719 6.28125 36.054688 6.503906 36.058594 6.730469 Z M 20.566406 17.757812 C 20.777344 17.816406 20.945312 17.929688 21.078125 18.101562 C 21.210938 18.277344 21.277344 18.46875 21.277344 18.6875 C 21.277344 18.90625 21.210938 19.097656 21.078125 19.273438 C 20.945312 19.445312 20.777344 19.558594 20.566406 19.617188 C 20.421875 19.65625 20.277344 19.660156 20.128906 19.632812 C 19.984375 19.601562 19.851562 19.542969 19.730469 19.453125 C 19.613281 19.359375 19.519531 19.246094 19.453125 19.113281 C 19.386719 18.980469 19.355469 18.835938 19.355469 18.6875 C 19.355469 18.539062 19.386719 18.394531 19.453125 18.261719 C 19.519531 18.128906 19.613281 18.015625 19.730469 17.921875 C 19.851562 17.832031 19.984375 17.773438 20.128906 17.742188 C 20.277344 17.714844 20.421875 17.71875 20.566406 17.757812 Z M 25.191406 23.460938 C 25.335938 23.421875 25.484375 23.417969 25.628906 23.445312 C 25.777344 23.476562 25.910156 23.535156 26.027344 23.625 C 26.148438 23.714844 26.238281 23.828125 26.304688 23.964844 C 26.371094 24.097656 26.40625 24.238281 26.40625 24.390625 C 26.40625 24.539062 26.371094 24.679688 26.304688 24.816406 C 26.238281 24.949219 26.148438 25.0625 26.027344 25.152344 C 25.910156 25.246094 25.777344 25.304688 25.628906 25.332031 C 25.484375 25.363281 25.335938 25.355469 25.191406 25.316406 C 24.984375 25.261719 24.8125 25.144531 24.679688 24.972656 C 24.546875 24.800781 24.484375 24.605469 24.484375 24.390625 C 24.484375 24.171875 24.546875 23.976562 24.679688 23.804688 C 24.8125 23.632812 24.984375 23.519531 25.191406 23.460938 Z M 10.894531 9.164062 C 11.160156 9.164062 11.386719 9.257812 11.574219 9.445312 C 11.761719 9.632812 11.855469 9.859375 11.855469 10.125 C 11.855469 10.390625 11.761719 10.617188 11.574219 10.804688 C 11.386719 10.992188 11.160156 11.085938 10.894531 11.085938 C 10.628906 11.085938 10.402344 10.992188 10.214844 10.804688 C 10.027344 10.617188 9.933594 10.390625 9.933594 10.125 C 9.933594 9.859375 10.027344 9.632812 10.214844 9.445312 C 10.402344 9.257812 10.628906 9.164062 10.894531 9.164062 Z M 12.816406 32.335938 L 12.816406 29.453125 L 24.691406 29.453125 L 24.691406 32.335938 Z M 8.394531 36.183594 L 8.394531 33.585938 L 29.125 33.585938 L 29.125 36.183594 Z M 8.394531 36.183594 " fill-opacity="1" fill-rule="nonzero"/></g><path fill="#ffac42" d="M 10.203125 24.585938 L 3.914062 24.585938 C 3.738281 24.585938 3.589844 24.648438 3.464844 24.773438 C 3.339844 24.894531 3.277344 25.046875 3.277344 25.222656 C 3.277344 25.394531 3.339844 25.546875 3.464844 25.667969 C 3.589844 25.792969 3.738281 25.855469 3.914062 25.855469 L 10.203125 25.855469 C 10.378906 25.855469 10.527344 25.792969 10.652344 25.667969 C 10.773438 25.546875 10.835938 25.394531 10.835938 25.222656 C 10.835938 25.046875 10.773438 24.894531 10.652344 24.773438 C 10.527344 24.648438 10.378906 24.585938 10.203125 24.585938 Z M 10.203125 24.585938 " fill-opacity="1" fill-rule="nonzero"/><path fill="#ffac42" d="M 3.914062 17.894531 L 12.191406 17.894531 C 12.367188 17.894531 12.515625 17.832031 12.640625 17.707031 C 12.765625 17.585938 12.828125 17.433594 12.828125 17.257812 C 12.828125 17.085938 12.765625 16.933594 12.640625 16.8125 C 12.515625 16.6875 12.367188 16.625 12.191406 16.625 L 3.914062 16.625 C 3.738281 16.625 3.589844 16.6875 3.464844 16.8125 C 3.339844 16.933594 3.277344 17.085938 3.277344 17.257812 C 3.277344 17.433594 3.339844 17.585938 3.464844 17.707031 C 3.589844 17.832031 3.738281 17.894531 3.914062 17.894531 Z M 3.914062 17.894531 " fill-opacity="1" fill-rule="nonzero"/><path fill="#ffac42" d="M 14.855469 20.132812 L 3.914062 20.132812 C 3.738281 20.132812 3.589844 20.195312 3.464844 20.320312 C 3.339844 20.445312 3.277344 20.59375 3.277344 20.769531 C 3.277344 20.945312 3.339844 21.09375 3.464844 21.21875 C 3.589844 21.34375 3.738281 21.402344 3.914062 21.402344 L 14.855469 21.402344 C 15.03125 21.402344 15.179688 21.339844 15.304688 21.21875 C 15.425781 21.09375 15.488281 20.945312 15.488281 20.769531 C 15.488281 20.59375 15.425781 20.445312 15.304688 20.320312 C 15.179688 20.195312 15.03125 20.136719 14.855469 20.132812 Z M 14.855469 20.132812 " fill-opacity="1" fill-rule="nonzero"/></svg>