<svg xmlns="http://www.w3.org/2000/svg" xmlns:xlink="http://www.w3.org/1999/xlink" width="50" zoomAndPan="magnify" viewBox="0 0 37.5 37.499999" height="50" preserveAspectRatio="xMidYMid meet" version="1.0"><defs><clipPath id="4017a0e42f"><path d="M 20 9 L 35.625 9 L 35.625 22 L 20 22 Z M 20 9 " clip-rule="nonzero"/></clipPath><clipPath id="e5549b3ece"><path d="M 2 11 L 29 11 L 29 37.007812 L 2 37.007812 Z M 2 11 " clip-rule="nonzero"/></clipPath><clipPath id="45404bb323"><path d="M 6 5 L 35.625 5 L 35.625 8 L 6 8 Z M 6 5 " clip-rule="nonzero"/></clipPath><clipPath id="31c3dd5a70"><path d="M 31 0 L 35.625 0 L 35.625 5 L 31 5 Z M 31 0 " clip-rule="nonzero"/></clipPath></defs><path fill="#ffac42" d="M 27.5 4.1875 C 27.765625 4.191406 28.023438 4.140625 28.269531 4.042969 C 28.515625 3.941406 28.734375 3.800781 28.925781 3.613281 C 29.117188 3.425781 29.261719 3.207031 29.367188 2.964844 C 29.46875 2.71875 29.523438 2.460938 29.523438 2.195312 C 29.527344 1.929688 29.476562 1.671875 29.375 1.425781 C 29.273438 1.179688 29.132812 0.960938 28.945312 0.769531 C 28.757812 0.582031 28.539062 0.4375 28.292969 0.332031 C 28.046875 0.230469 27.792969 0.179688 27.523438 0.175781 C 27.257812 0.175781 27.003906 0.226562 26.753906 0.328125 C 26.507812 0.429688 26.292969 0.574219 26.101562 0.761719 C 25.914062 0.949219 25.769531 1.167969 25.667969 1.414062 C 25.5625 1.660156 25.511719 1.917969 25.511719 2.183594 C 25.511719 2.449219 25.5625 2.703125 25.660156 2.949219 C 25.761719 3.191406 25.90625 3.410156 26.089844 3.597656 C 26.277344 3.785156 26.492188 3.929688 26.738281 4.03125 C 26.980469 4.136719 27.234375 4.1875 27.5 4.1875 Z M 27.5 2.957031 C 27.289062 2.945312 27.113281 2.863281 26.96875 2.707031 C 26.824219 2.554688 26.757812 2.371094 26.761719 2.160156 C 26.769531 1.949219 26.851562 1.769531 27.003906 1.625 C 27.15625 1.476562 27.335938 1.40625 27.550781 1.410156 C 27.761719 1.414062 27.941406 1.488281 28.089844 1.640625 C 28.238281 1.789062 28.3125 1.972656 28.3125 2.183594 C 28.316406 2.292969 28.296875 2.394531 28.257812 2.496094 C 28.21875 2.597656 28.160156 2.6875 28.082031 2.761719 C 28.003906 2.839844 27.914062 2.894531 27.816406 2.933594 C 27.714844 2.972656 27.609375 2.992188 27.5 2.984375 Z M 27.5 2.957031 " fill-opacity="1" fill-rule="nonzero"/><path fill="#ffac42" d="M 21.914062 4.1875 C 22.179688 4.191406 22.433594 4.140625 22.679688 4.039062 C 22.925781 3.9375 23.144531 3.792969 23.335938 3.605469 C 23.523438 3.417969 23.667969 3.203125 23.773438 2.957031 C 23.875 2.710938 23.925781 2.457031 23.925781 2.1875 C 23.929688 1.921875 23.878906 1.667969 23.777344 1.421875 C 23.675781 1.175781 23.53125 0.957031 23.34375 0.769531 C 23.15625 0.578125 22.9375 0.433594 22.691406 0.332031 C 22.445312 0.230469 22.191406 0.175781 21.925781 0.175781 C 21.660156 0.175781 21.402344 0.226562 21.15625 0.328125 C 20.910156 0.429688 20.691406 0.574219 20.503906 0.761719 C 20.316406 0.953125 20.171875 1.167969 20.070312 1.414062 C 19.96875 1.660156 19.917969 1.917969 19.917969 2.183594 C 19.914062 2.449219 19.964844 2.703125 20.066406 2.949219 C 20.167969 3.195312 20.308594 3.414062 20.496094 3.601562 C 20.683594 3.789062 20.902344 3.933594 21.144531 4.035156 C 21.390625 4.136719 21.648438 4.1875 21.914062 4.1875 Z M 21.914062 1.390625 C 22.125 1.390625 22.308594 1.464844 22.460938 1.617188 C 22.613281 1.769531 22.6875 1.953125 22.6875 2.167969 C 22.6875 2.382812 22.609375 2.5625 22.457031 2.714844 C 22.304688 2.867188 22.121094 2.941406 21.90625 2.9375 C 21.691406 2.9375 21.507812 2.859375 21.359375 2.707031 C 21.210938 2.554688 21.136719 2.371094 21.136719 2.15625 C 21.144531 1.949219 21.226562 1.773438 21.375 1.628906 C 21.527344 1.484375 21.703125 1.414062 21.914062 1.417969 Z M 21.914062 1.390625 " fill-opacity="1" fill-rule="nonzero"/><g clip-path="url(#4017a0e42f)"><path fill="#ffac42" d="M 34.476562 9.691406 L 20.933594 9.691406 C 20.761719 9.691406 20.617188 9.753906 20.496094 9.871094 C 20.378906 9.992188 20.316406 10.136719 20.316406 10.308594 L 20.316406 12.628906 C 20.316406 12.800781 20.378906 12.945312 20.496094 13.066406 C 20.617188 13.1875 20.761719 13.246094 20.933594 13.246094 C 21.101562 13.246094 21.246094 13.1875 21.367188 13.066406 C 21.488281 12.945312 21.546875 12.800781 21.546875 12.628906 L 21.546875 10.921875 L 33.910156 10.921875 L 33.910156 19.777344 L 26.808594 19.777344 C 26.625 19.753906 26.464844 19.804688 26.328125 19.925781 C 26.1875 20.046875 26.117188 20.203125 26.117188 20.386719 C 26.117188 20.570312 26.1875 20.726562 26.328125 20.847656 C 26.464844 20.972656 26.625 21.019531 26.808594 21 L 34.476562 21 C 34.648438 21 34.792969 20.9375 34.914062 20.816406 C 35.03125 20.699219 35.09375 20.550781 35.09375 20.382812 L 35.09375 10.308594 C 35.089844 10.140625 35.03125 9.996094 34.910156 9.875 C 34.789062 9.753906 34.648438 9.695312 34.476562 9.691406 Z M 34.476562 9.691406 " fill-opacity="1" fill-rule="nonzero"/></g><path fill="#ffac42" d="M 15.140625 17.324219 C 14.664062 17.324219 14.195312 17.367188 13.730469 17.460938 C 13.265625 17.554688 12.816406 17.691406 12.375 17.871094 C 11.9375 18.054688 11.523438 18.277344 11.128906 18.539062 C 10.734375 18.804688 10.371094 19.101562 10.035156 19.4375 C 9.699219 19.773438 9.398438 20.136719 9.136719 20.53125 C 8.875 20.925781 8.652344 21.34375 8.46875 21.78125 C 8.289062 22.21875 8.152344 22.667969 8.058594 23.132812 C 7.964844 23.597656 7.917969 24.070312 7.917969 24.542969 C 7.917969 25.015625 7.964844 25.488281 8.058594 25.953125 C 8.152344 26.417969 8.289062 26.867188 8.46875 27.304688 C 8.652344 27.742188 8.875 28.160156 9.136719 28.554688 C 9.398438 28.949219 9.699219 29.3125 10.035156 29.648438 C 10.371094 29.984375 10.734375 30.28125 11.128906 30.546875 C 11.523438 30.808594 11.9375 31.03125 12.375 31.214844 C 12.816406 31.394531 13.265625 31.53125 13.730469 31.625 C 14.195312 31.71875 14.664062 31.761719 15.140625 31.761719 C 15.613281 31.761719 16.082031 31.71875 16.546875 31.625 C 17.011719 31.53125 17.464844 31.394531 17.902344 31.214844 C 18.339844 31.03125 18.757812 30.808594 19.152344 30.546875 C 19.546875 30.28125 19.910156 29.984375 20.246094 29.648438 C 20.582031 29.3125 20.878906 28.949219 21.144531 28.554688 C 21.40625 28.160156 21.628906 27.742188 21.808594 27.304688 C 21.992188 26.867188 22.128906 26.417969 22.222656 25.953125 C 22.3125 25.488281 22.359375 25.015625 22.359375 24.542969 C 22.359375 24.070312 22.3125 23.601562 22.21875 23.136719 C 22.125 22.671875 21.988281 22.21875 21.808594 21.78125 C 21.625 21.34375 21.402344 20.929688 21.140625 20.535156 C 20.878906 20.140625 20.578125 19.773438 20.242188 19.441406 C 19.90625 19.105469 19.542969 18.804688 19.148438 18.542969 C 18.753906 18.277344 18.339844 18.054688 17.902344 17.875 C 17.464844 17.691406 17.011719 17.554688 16.546875 17.464844 C 16.082031 17.371094 15.613281 17.324219 15.140625 17.324219 Z M 9.152344 24.542969 C 9.152344 24.148438 9.1875 23.757812 9.265625 23.371094 C 9.339844 22.984375 9.453125 22.609375 9.605469 22.246094 C 9.753906 21.882812 9.941406 21.535156 10.15625 21.207031 C 10.375 20.878906 10.625 20.574219 10.902344 20.296875 C 11.183594 20.019531 11.484375 19.769531 11.8125 19.550781 C 12.140625 19.332031 12.484375 19.144531 12.847656 18.992188 C 13.214844 18.84375 13.589844 18.730469 13.976562 18.652344 C 14.363281 18.574219 14.753906 18.535156 15.144531 18.535156 C 15.539062 18.535156 15.929688 18.574219 16.316406 18.648438 C 16.703125 18.726562 17.078125 18.839844 17.441406 18.992188 C 17.808594 19.140625 18.152344 19.328125 18.480469 19.546875 C 18.808594 19.765625 19.113281 20.011719 19.390625 20.292969 C 19.667969 20.570312 19.917969 20.875 20.136719 21.203125 C 20.355469 21.53125 20.539062 21.875 20.691406 22.238281 C 20.84375 22.605469 20.957031 22.980469 21.03125 23.367188 C 21.109375 23.753906 21.148438 24.144531 21.148438 24.535156 C 21.148438 24.929688 21.109375 25.320312 21.03125 25.707031 C 20.953125 26.09375 20.839844 26.46875 20.6875 26.832031 C 20.539062 27.199219 20.351562 27.542969 20.132812 27.871094 C 19.914062 28.199219 19.664062 28.5 19.386719 28.78125 C 19.105469 29.058594 18.804688 29.304688 18.476562 29.523438 C 18.148438 29.742188 17.800781 29.929688 17.4375 30.078125 C 17.074219 30.226562 16.699219 30.339844 16.3125 30.417969 C 15.925781 30.496094 15.535156 30.53125 15.140625 30.53125 C 14.746094 30.53125 14.359375 30.492188 13.972656 30.414062 C 13.585938 30.339844 13.210938 30.222656 12.847656 30.074219 C 12.488281 29.921875 12.140625 29.738281 11.816406 29.519531 C 11.488281 29.300781 11.1875 29.054688 10.90625 28.773438 C 10.628906 28.496094 10.382812 28.195312 10.164062 27.867188 C 9.945312 27.542969 9.761719 27.195312 9.609375 26.832031 C 9.457031 26.46875 9.34375 26.097656 9.269531 25.710938 C 9.191406 25.324219 9.152344 24.9375 9.152344 24.542969 Z M 9.152344 24.542969 " fill-opacity="1" fill-rule="nonzero"/><g clip-path="url(#e5549b3ece)"><path fill="#ffac42" d="M 27.480469 21.957031 L 25.839844 21.957031 C 25.472656 21.953125 25.140625 21.84375 24.84375 21.636719 C 24.542969 21.425781 24.328125 21.152344 24.199219 20.8125 C 24.066406 20.472656 24.03125 20.128906 24.101562 19.773438 C 24.171875 19.414062 24.332031 19.105469 24.582031 18.84375 L 25.738281 17.695312 C 25.851562 17.574219 25.910156 17.425781 25.914062 17.257812 C 25.914062 17.089844 25.855469 16.949219 25.738281 16.828125 L 22.9375 14.03125 C 22.824219 13.90625 22.679688 13.84375 22.507812 13.84375 C 22.335938 13.84375 22.191406 13.90625 22.070312 14.03125 L 20.847656 15.113281 C 20.507812 15.449219 20.097656 15.613281 19.617188 15.605469 C 19.359375 15.605469 19.109375 15.554688 18.871094 15.457031 C 18.523438 15.328125 18.242188 15.113281 18.027344 14.8125 C 17.816406 14.511719 17.703125 14.175781 17.695312 13.804688 L 17.695312 12.203125 C 17.695312 12.03125 17.636719 11.886719 17.515625 11.765625 C 17.394531 11.644531 17.25 11.585938 17.082031 11.585938 L 13.171875 11.585938 C 13.003906 11.589844 12.859375 11.648438 12.738281 11.769531 C 12.621094 11.886719 12.558594 12.03125 12.554688 12.203125 L 12.554688 13.84375 C 12.550781 14.207031 12.441406 14.539062 12.234375 14.835938 C 12.027344 15.136719 11.757812 15.351562 11.417969 15.484375 C 11.167969 15.585938 10.90625 15.640625 10.632812 15.644531 C 10.152344 15.636719 9.742188 15.457031 9.402344 15.113281 L 8.246094 13.992188 C 8.128906 13.867188 7.984375 13.804688 7.8125 13.804688 C 7.640625 13.804688 7.496094 13.867188 7.378906 13.992188 L 4.582031 16.792969 C 4.464844 16.910156 4.40625 17.058594 4.40625 17.226562 C 4.40625 17.394531 4.464844 17.539062 4.582031 17.660156 L 5.746094 18.84375 C 6 19.105469 6.160156 19.417969 6.222656 19.777344 C 6.289062 20.136719 6.246094 20.484375 6.101562 20.820312 C 5.964844 21.164062 5.746094 21.445312 5.445312 21.660156 C 5.144531 21.875 4.808594 21.992188 4.441406 22.003906 L 2.808594 22.003906 C 2.644531 22.003906 2.503906 22.054688 2.386719 22.167969 C 2.265625 22.277344 2.203125 22.414062 2.191406 22.574219 L 2.191406 26.519531 C 2.191406 26.691406 2.253906 26.835938 2.371094 26.957031 C 2.492188 27.074219 2.636719 27.136719 2.808594 27.136719 L 4.441406 27.136719 C 4.800781 27.140625 5.132812 27.246094 5.429688 27.453125 C 5.730469 27.65625 5.945312 27.929688 6.082031 28.265625 C 6.238281 28.601562 6.285156 28.957031 6.226562 29.324219 C 6.164062 29.691406 6.003906 30.011719 5.746094 30.28125 L 4.589844 31.4375 C 4.472656 31.558594 4.414062 31.703125 4.414062 31.871094 C 4.414062 32.039062 4.472656 32.183594 4.589844 32.304688 L 7.386719 35.101562 C 7.507812 35.222656 7.652344 35.28125 7.820312 35.28125 C 7.992188 35.28125 8.136719 35.222656 8.253906 35.101562 L 9.414062 33.945312 C 9.753906 33.609375 10.164062 33.441406 10.644531 33.441406 C 10.902344 33.441406 11.152344 33.488281 11.390625 33.589844 C 11.734375 33.726562 12.011719 33.945312 12.222656 34.246094 C 12.4375 34.546875 12.550781 34.882812 12.566406 35.25 L 12.566406 36.882812 C 12.566406 37.054688 12.628906 37.199219 12.75 37.316406 C 12.867188 37.4375 13.011719 37.496094 13.179688 37.5 L 17.117188 37.5 C 17.289062 37.5 17.433594 37.441406 17.554688 37.320312 C 17.671875 37.199219 17.734375 37.054688 17.734375 36.882812 L 17.734375 35.242188 C 17.738281 34.878906 17.847656 34.546875 18.054688 34.246094 C 18.265625 33.945312 18.539062 33.730469 18.878906 33.601562 C 19.128906 33.492188 19.390625 33.433594 19.664062 33.433594 C 20.144531 33.425781 20.550781 33.59375 20.886719 33.9375 L 22.042969 35.09375 C 22.164062 35.214844 22.3125 35.273438 22.480469 35.269531 C 22.648438 35.273438 22.792969 35.214844 22.910156 35.09375 L 25.707031 32.292969 C 25.832031 32.175781 25.890625 32.03125 25.890625 31.859375 C 25.890625 31.691406 25.832031 31.546875 25.707031 31.425781 L 24.582031 30.28125 C 24.324219 30.015625 24.164062 29.707031 24.101562 29.34375 C 24.039062 28.984375 24.082031 28.636719 24.234375 28.300781 C 24.363281 27.957031 24.578125 27.675781 24.878906 27.460938 C 25.179688 27.246094 25.515625 27.132812 25.886719 27.125 L 27.527344 27.125 C 27.695312 27.125 27.839844 27.0625 27.957031 26.941406 C 28.074219 26.824219 28.132812 26.679688 28.132812 26.511719 L 28.132812 22.574219 C 28.136719 22.394531 28.074219 22.246094 27.945312 22.121094 C 27.8125 22 27.660156 21.945312 27.480469 21.957031 Z M 21.78125 33.070312 C 21.203125 32.484375 20.503906 32.195312 19.683594 32.203125 C 19.261719 32.203125 18.855469 32.289062 18.46875 32.453125 C 17.890625 32.675781 17.425781 33.042969 17.074219 33.554688 C 16.722656 34.066406 16.542969 34.632812 16.539062 35.25 L 16.539062 36.269531 L 13.789062 36.269531 L 13.789062 35.242188 C 13.789062 34.628906 13.621094 34.070312 13.28125 33.558594 C 12.941406 33.050781 12.488281 32.675781 11.921875 32.445312 C 11.519531 32.277344 11.105469 32.195312 10.671875 32.191406 C 9.851562 32.1875 9.152344 32.472656 8.574219 33.050781 L 7.789062 33.769531 L 5.921875 31.902344 L 6.640625 31.183594 C 7.074219 30.746094 7.34375 30.222656 7.457031 29.617188 C 7.570312 29.011719 7.503906 28.429688 7.257812 27.863281 C 7.035156 27.285156 6.667969 26.820312 6.15625 26.46875 C 5.644531 26.113281 5.078125 25.9375 4.457031 25.933594 L 3.421875 25.933594 L 3.421875 23.179688 L 4.441406 23.179688 C 5.058594 23.164062 5.621094 22.984375 6.128906 22.632812 C 6.636719 22.285156 7.007812 21.824219 7.246094 21.253906 C 7.480469 20.683594 7.539062 20.09375 7.425781 19.488281 C 7.3125 18.882812 7.039062 18.355469 6.613281 17.910156 L 5.921875 17.210938 L 7.789062 15.289062 L 8.535156 16.042969 C 9.117188 16.621094 9.816406 16.90625 10.632812 16.902344 C 11.058594 16.898438 11.464844 16.820312 11.855469 16.660156 C 12.433594 16.433594 12.898438 16.066406 13.25 15.554688 C 13.601562 15.046875 13.78125 14.480469 13.789062 13.863281 L 13.789062 12.835938 L 16.5 12.835938 L 16.5 13.863281 C 16.5 14.472656 16.667969 15.035156 17.007812 15.542969 C 17.347656 16.054688 17.800781 16.425781 18.367188 16.660156 C 18.769531 16.835938 19.1875 16.921875 19.625 16.921875 C 20.472656 16.9375 21.1875 16.648438 21.78125 16.042969 L 22.507812 15.316406 L 24.429688 17.238281 L 23.648438 17.910156 C 23.226562 18.355469 22.960938 18.882812 22.851562 19.484375 C 22.738281 20.085938 22.800781 20.671875 23.035156 21.238281 C 23.269531 21.804688 23.640625 22.265625 24.144531 22.613281 C 24.648438 22.960938 25.207031 23.144531 25.820312 23.164062 L 26.847656 23.164062 L 26.847656 25.875 L 25.820312 25.875 C 25.207031 25.875 24.648438 26.042969 24.136719 26.382812 C 23.628906 26.722656 23.253906 27.175781 23.023438 27.742188 C 22.894531 28.023438 22.808594 28.320312 22.773438 28.625 C 22.734375 28.933594 22.742188 29.238281 22.800781 29.542969 C 22.855469 29.847656 22.957031 30.136719 23.101562 30.410156 C 23.246094 30.683594 23.425781 30.929688 23.648438 31.148438 L 24.375 31.867188 L 22.472656 33.769531 Z M 21.78125 33.070312 " fill-opacity="1" fill-rule="nonzero"/></g><g clip-path="url(#45404bb323)"><path fill="#ffac42" d="M 34.476562 5.785156 L 7.425781 5.785156 C 7.253906 5.785156 7.109375 5.84375 6.988281 5.964844 C 6.871094 6.085938 6.808594 6.230469 6.808594 6.398438 C 6.808594 6.570312 6.871094 6.714844 6.988281 6.835938 C 7.109375 6.953125 7.253906 7.015625 7.425781 7.015625 L 34.476562 7.015625 C 34.648438 7.015625 34.792969 6.953125 34.914062 6.835938 C 35.03125 6.714844 35.09375 6.570312 35.09375 6.398438 C 35.09375 6.230469 35.03125 6.085938 34.914062 5.964844 C 34.792969 5.84375 34.648438 5.785156 34.476562 5.785156 Z M 34.476562 5.785156 " fill-opacity="1" fill-rule="nonzero"/></g><g clip-path="url(#31c3dd5a70)"><path fill="#ffac42" d="M 33.097656 4.1875 C 33.363281 4.191406 33.621094 4.140625 33.867188 4.042969 C 34.113281 3.941406 34.332031 3.800781 34.523438 3.613281 C 34.710938 3.425781 34.859375 3.207031 34.964844 2.964844 C 35.066406 2.71875 35.121094 2.460938 35.121094 2.195312 C 35.121094 1.929688 35.074219 1.671875 34.972656 1.425781 C 34.871094 1.179688 34.726562 0.960938 34.539062 0.769531 C 34.351562 0.582031 34.136719 0.4375 33.890625 0.332031 C 33.644531 0.230469 33.386719 0.179688 33.121094 0.175781 C 32.855469 0.175781 32.597656 0.226562 32.351562 0.328125 C 32.105469 0.429688 31.886719 0.574219 31.699219 0.761719 C 31.511719 0.949219 31.367188 1.167969 31.261719 1.414062 C 31.160156 1.660156 31.109375 1.917969 31.109375 2.183594 C 31.109375 2.449219 31.160156 2.703125 31.257812 2.949219 C 31.359375 3.191406 31.5 3.410156 31.6875 3.597656 C 31.875 3.785156 32.089844 3.929688 32.332031 4.03125 C 32.578125 4.136719 32.832031 4.1875 33.097656 4.1875 Z M 33.097656 2.957031 C 32.886719 2.945312 32.707031 2.863281 32.566406 2.707031 C 32.421875 2.554688 32.355469 2.371094 32.359375 2.160156 C 32.367188 1.949219 32.445312 1.769531 32.601562 1.625 C 32.753906 1.476562 32.933594 1.40625 33.144531 1.410156 C 33.359375 1.414062 33.539062 1.488281 33.6875 1.640625 C 33.835938 1.789062 33.910156 1.972656 33.910156 2.183594 C 33.914062 2.292969 33.894531 2.394531 33.855469 2.496094 C 33.816406 2.597656 33.757812 2.6875 33.679688 2.761719 C 33.601562 2.839844 33.511719 2.894531 33.410156 2.933594 C 33.308594 2.972656 33.207031 2.992188 33.097656 2.984375 Z M 33.097656 2.957031 " fill-opacity="1" fill-rule="nonzero"/></g><path fill="#ffac42" d="M 11.398438 10.921875 C 11.570312 10.921875 11.714844 10.863281 11.835938 10.742188 C 11.953125 10.621094 12.015625 10.476562 12.015625 10.308594 C 12.015625 10.136719 11.953125 9.992188 11.835938 9.871094 C 11.714844 9.753906 11.570312 9.691406 11.398438 9.691406 L 7.386719 9.691406 C 7.21875 9.691406 7.074219 9.753906 6.953125 9.871094 C 6.832031 9.992188 6.773438 10.136719 6.773438 10.308594 C 6.773438 10.476562 6.832031 10.621094 6.953125 10.742188 C 7.074219 10.863281 7.21875 10.921875 7.386719 10.921875 Z M 11.398438 10.921875 " fill-opacity="1" fill-rule="nonzero"/></svg>