<svg xmlns="http://www.w3.org/2000/svg" xmlns:xlink="http://www.w3.org/1999/xlink" width="50" zoomAndPan="magnify" viewBox="0 0 37.5 37.499999" height="50" preserveAspectRatio="xMidYMid meet" version="1.0"><defs><clipPath id="4811124f62"><path d="M 3.410156 0 L 34.160156 0 L 34.160156 37.007812 L 3.410156 37.007812 Z M 3.410156 0 " clip-rule="nonzero"/></clipPath></defs><g clip-path="url(#4811124f62)"><path fill="#ffac42" d="M 8.535156 3.410156 C 7.589844 3.410156 6.824219 4.171875 6.824219 5.113281 L 6.824219 32.386719 C 6.824219 33.328125 7.589844 34.089844 8.535156 34.089844 L 29.035156 34.089844 C 29.976562 34.089844 30.742188 33.328125 30.742188 32.386719 L 30.742188 13.5 C 30.742188 13.003906 30.523438 12.53125 30.144531 12.207031 L 20.339844 3.820312 C 20.03125 3.554688 19.636719 3.410156 19.230469 3.410156 Z M 3.410156 5.113281 C 3.410156 2.289062 5.703125 0 8.535156 0 L 19.230469 0 C 20.453125 0 21.636719 0.4375 22.5625 1.230469 L 32.371094 9.617188 C 33.503906 10.589844 34.160156 12.007812 34.160156 13.5 L 34.160156 32.386719 C 34.160156 35.210938 31.863281 37.5 29.035156 37.5 L 8.535156 37.5 C 5.703125 37.5 3.410156 35.210938 3.410156 32.386719 Z M 3.410156 5.113281 " fill-opacity="1" fill-rule="evenodd"/></g><path fill="#ffac42" d="M 18.785156 8.523438 L 18.785156 2.558594 L 22.199219 2.558594 L 22.199219 8.523438 C 22.199219 9.464844 22.964844 10.226562 23.910156 10.226562 L 31.597656 10.226562 L 31.597656 13.636719 L 23.910156 13.636719 C 21.078125 13.636719 18.785156 11.347656 18.785156 8.523438 Z M 18.785156 8.523438 " fill-opacity="1" fill-rule="evenodd"/><path fill="#ffac42" d="M 8.320312 22.53125 L 12.59375 19.125 L 14.726562 21.785156 L 12.121094 23.863281 L 14.726562 25.941406 L 12.59375 28.601562 L 8.320312 25.195312 C 7.914062 24.871094 7.679688 24.382812 7.679688 23.863281 C 7.679688 23.34375 7.914062 22.855469 8.320312 22.53125 Z M 8.320312 22.53125 " fill-opacity="1" fill-rule="evenodd"/><path fill="#ffac42" d="M 29.246094 25.195312 L 24.976562 28.601562 L 22.84375 25.941406 L 25.445312 23.863281 L 22.84375 21.785156 L 24.976562 19.125 L 29.246094 22.53125 C 29.652344 22.855469 29.886719 23.34375 29.886719 23.863281 C 29.886719 24.382812 29.652344 24.871094 29.246094 25.195312 Z M 29.246094 25.195312 " fill-opacity="1" fill-rule="evenodd"/><path fill="#ffac42" d="M 15.417969 30.269531 L 18.835938 16.632812 L 22.148438 17.457031 L 18.734375 31.09375 Z M 15.417969 30.269531 " fill-opacity="1" fill-rule="evenodd"/></svg>