<svg xmlns="http://www.w3.org/2000/svg" xmlns:xlink="http://www.w3.org/1999/xlink" width="50" zoomAndPan="magnify" viewBox="0 0 37.5 37.499999" height="50" preserveAspectRatio="xMidYMid meet" version="1.0"><defs><clipPath id="2b72bbcde6"><path d="M 2.902344 0.429688 L 34.402344 0.429688 L 34.402344 37.007812 L 2.902344 37.007812 Z M 2.902344 0.429688 " clip-rule="nonzero"/></clipPath></defs><g clip-path="url(#2b72bbcde6)"><path fill="#ffac42" d="M 17.113281 32.863281 L 17.113281 19.625 L 5.832031 13.078125 L 5.832031 20.621094 L 11 23.644531 L 11 29.320312 Z M 20.042969 32.941406 L 26.269531 29.320312 L 26.269531 23.511719 L 31.472656 20.472656 L 31.472656 13.019531 L 20.042969 19.679688 Z M 29.96875 10.480469 L 23.960938 6.96875 L 18.6875 10.058594 L 13.375 6.964844 L 7.3125 10.523438 L 18.625 17.089844 Z M 2.902344 28.035156 L 2.902344 9.695312 L 18.652344 0.445312 L 34.402344 9.65625 L 34.402344 28.007812 L 18.648438 37.164062 L 2.902344 28.039062 Z M 2.902344 28.035156 " fill-opacity="1" fill-rule="nonzero"/></g></svg>