<svg xmlns="http://www.w3.org/2000/svg" xmlns:xlink="http://www.w3.org/1999/xlink" width="50" zoomAndPan="magnify" viewBox="0 0 37.5 37.499999" height="50" preserveAspectRatio="xMidYMid meet" version="1.0"><defs><clipPath id="82b98c534c"><path d="M 0 0 L 37.007812 0 L 37.007812 37.007812 L 0 37.007812 Z M 0 0 " clip-rule="nonzero"/></clipPath></defs><g clip-path="url(#82b98c534c)"><path fill="#ffac42" d="M 18.753906 0 C 8.40625 0 0.0234375 8.394531 0.0234375 18.75 C 0.0234375 29.105469 8.40625 37.5 18.753906 37.5 C 29.097656 37.5 37.484375 29.105469 37.484375 18.75 C 37.484375 8.394531 29.097656 0 18.753906 0 Z M 18.753906 34.523438 C 10.046875 34.523438 2.992188 27.464844 2.992188 18.75 C 2.992188 10.035156 10.046875 2.972656 18.753906 2.972656 C 27.457031 2.972656 34.511719 10.035156 34.511719 18.75 C 34.511719 27.464844 27.457031 34.523438 18.753906 34.523438 Z M 18.753906 34.523438 " fill-opacity="1" fill-rule="nonzero"/></g><path fill="#ffac42" d="M 30.492188 19.210938 L 30.5 19.199219 C 30.742188 18.945312 30.746094 18.542969 30.496094 18.296875 L 21.304688 9.09375 C 21.179688 8.96875 21.015625 8.90625 20.851562 8.90625 C 20.6875 8.90625 20.527344 8.96875 20.402344 9.09375 L 20.390625 9.105469 C 20.269531 9.226562 20.203125 9.386719 20.203125 9.558594 L 20.203125 12.105469 C 20.203125 12.273438 20.269531 12.433594 20.390625 12.554688 L 26.578125 18.75 L 20.390625 24.941406 C 20.269531 25.0625 20.203125 25.226562 20.203125 25.394531 L 20.203125 27.941406 C 20.203125 28.109375 20.269531 28.273438 20.390625 28.390625 L 20.402344 28.402344 C 20.519531 28.523438 20.683594 28.589844 20.851562 28.589844 C 21.023438 28.589844 21.183594 28.523438 21.304688 28.402344 Z M 30.492188 19.210938 " fill-opacity="1" fill-rule="nonzero"/><path fill="#ffac42" d="M 7.238281 19.210938 L 7.230469 19.199219 C 6.984375 18.945312 6.984375 18.542969 7.230469 18.296875 L 16.425781 9.09375 C 16.550781 8.96875 16.714844 8.90625 16.875 8.90625 C 17.039062 8.90625 17.203125 8.96875 17.328125 9.09375 L 17.339844 9.105469 C 17.457031 9.226562 17.527344 9.386719 17.527344 9.558594 L 17.527344 12.105469 C 17.527344 12.273438 17.457031 12.433594 17.339844 12.554688 L 11.152344 18.75 L 17.339844 24.941406 C 17.457031 25.0625 17.527344 25.226562 17.527344 25.394531 L 17.527344 27.941406 C 17.527344 28.109375 17.457031 28.273438 17.339844 28.390625 L 17.328125 28.402344 C 17.207031 28.523438 17.046875 28.589844 16.875 28.589844 C 16.707031 28.589844 16.546875 28.523438 16.425781 28.402344 Z M 7.238281 19.210938 " fill-opacity="1" fill-rule="nonzero"/></svg>