<svg xmlns="http://www.w3.org/2000/svg" xmlns:xlink="http://www.w3.org/1999/xlink" width="50" zoomAndPan="magnify" viewBox="0 0 37.5 37.499999" height="50" preserveAspectRatio="xMidYMid meet" version="1.0"><defs><g/></defs><g fill="#ffffff" fill-opacity="1"><g transform="translate(5.110672, 36.562172)"><g><path d="M 4.007812 0.0507812 L 8.117188 0.0507812 L 8.476562 0 L 8.628906 -0.617188 L 8.679688 -1.027344 L 8.730469 -1.488281 L 8.886719 -1.902344 L 8.9375 -2.261719 L 9.039062 -2.566406 L 9.089844 -2.925781 L 9.089844 -3.339844 L 9.296875 -3.648438 L 9.296875 -4.367188 L 9.449219 -5.136719 L 9.449219 -5.648438 L 9.605469 -6.007812 L 9.65625 -6.367188 L 9.808594 -6.984375 L 9.914062 -7.34375 L 10.015625 -7.960938 L 10.167969 -8.421875 L 10.324219 -9.144531 L 10.324219 -9.449219 L 10.375 -9.808594 L 10.476562 -10.117188 L 10.53125 -10.476562 L 10.582031 -10.785156 L 10.632812 -11.453125 L 10.734375 -11.710938 L 10.785156 -12.378906 L 10.941406 -12.789062 L 10.992188 -13.148438 L 10.992188 -13.25 L 11.761719 -13.199219 L 12.890625 -13.199219 L 13.867188 -13.148438 L 15.304688 -13.25 L 16.023438 -13.355469 L 16.691406 -13.40625 L 17.308594 -13.507812 L 18.132812 -13.765625 L 18.800781 -14.074219 L 19.3125 -14.226562 L 20.03125 -14.585938 L 20.289062 -14.894531 L 20.957031 -15.410156 L 21.214844 -15.769531 L 21.574219 -16.28125 L 22.035156 -16.691406 L 22.394531 -17.308594 L 22.703125 -17.617188 L 23.164062 -18.386719 L 23.523438 -19.003906 L 23.78125 -19.570312 L 24.191406 -20.546875 L 24.449219 -21.265625 L 24.601562 -21.675781 L 24.757812 -22.394531 L 24.859375 -22.703125 L 24.910156 -23.011719 L 25.066406 -23.371094 L 25.117188 -23.78125 L 25.269531 -24.140625 L 25.375 -24.859375 L 25.476562 -25.988281 L 25.527344 -26.347656 L 25.628906 -26.914062 L 25.679688 -27.480469 L 25.628906 -28.042969 L 25.628906 -28.402344 L 25.578125 -29.175781 L 25.628906 -29.6875 L 25.476562 -30.253906 L 25.425781 -30.613281 L 25.375 -31.175781 L 25.167969 -31.742188 L 25.066406 -32.101562 L 24.757812 -32.769531 L 24.601562 -33.179688 L 24.292969 -33.539062 L 23.988281 -33.949219 L 23.78125 -34.207031 L 23.320312 -34.617188 L 22.652344 -34.976562 L 22.292969 -35.132812 L 21.933594 -35.390625 L 21.574219 -35.492188 L 20.75 -35.644531 L 19.671875 -35.800781 L 19.003906 -35.902344 L 18.59375 -35.902344 L 17.824219 -36.003906 L 17.105469 -36.003906 L 16.332031 -35.953125 L 15.972656 -36.003906 L 12.53125 -36.003906 L 12.222656 -35.953125 L 11.558594 -36.003906 L 10.890625 -35.953125 L 8.21875 -35.953125 L 7.808594 -35.75 L 7.601562 -35.082031 L 7.550781 -34.671875 L 7.394531 -33.949219 L 7.34375 -33.539062 L 7.292969 -33.179688 L 7.089844 -32.359375 L 6.984375 -32 L 6.984375 -31.691406 L 6.933594 -31.332031 L 6.832031 -30.972656 L 6.832031 -30.5625 L 6.730469 -30.203125 L 6.675781 -29.585938 L 6.523438 -29.121094 L 6.367188 -28.402344 L 6.265625 -27.992188 L 6.214844 -27.070312 L 6.164062 -26.761719 L 6.007812 -26.09375 L 6.0625 -25.886719 L 6.007812 -25.320312 L 5.804688 -24.5 L 5.753906 -24.191406 L 5.703125 -23.523438 L 5.546875 -23.164062 L 5.445312 -22.804688 L 5.394531 -22.136719 L 5.394531 -21.519531 L 5.238281 -20.851562 L 5.085938 -20.03125 L 4.980469 -19.261719 L 4.929688 -18.851562 L 4.777344 -18.132812 L 4.726562 -17.824219 L 4.621094 -17.464844 L 4.570312 -17.15625 L 4.46875 -16.796875 L 4.417969 -16.078125 L 4.367188 -15.664062 L 4.210938 -15.304688 L 4.058594 -14.226562 L 4.007812 -13.457031 L 3.851562 -13.148438 L 3.851562 -12.789062 L 3.75 -12.480469 L 3.75 -11.917969 L 3.492188 -11.402344 L 3.492188 -11.144531 L 3.441406 -10.53125 L 3.390625 -10.222656 L 3.183594 -9.554688 L 3.082031 -9.246094 L 3.03125 -8.886719 L 2.980469 -8.21875 L 2.824219 -7.910156 L 2.621094 -6.730469 L 2.566406 -6.421875 L 2.515625 -6.0625 L 2.363281 -5.445312 L 2.3125 -5.085938 L 2.15625 -4.417969 L 2.003906 -3.648438 L 1.847656 -2.925781 L 1.847656 -2.621094 L 1.695312 -1.902344 L 1.746094 -1.539062 L 1.59375 -1.234375 L 1.59375 -0.257812 L 1.902344 0 L 2.824219 -0.0507812 L 3.183594 0 Z M 12.070312 -19.722656 L 12.121094 -20.1875 L 12.277344 -20.90625 L 12.277344 -21.367188 L 12.53125 -22.652344 L 12.636719 -23.113281 L 12.636719 -23.523438 L 12.6875 -24.140625 L 12.839844 -24.960938 L 12.945312 -25.476562 L 13.097656 -26.503906 L 13.25 -27.121094 L 13.355469 -27.480469 L 13.457031 -28.351562 L 13.507812 -28.867188 L 13.609375 -29.121094 L 13.867188 -29.738281 L 14.226562 -29.84375 L 15.410156 -29.894531 L 16.796875 -29.84375 L 17.257812 -29.738281 L 17.824219 -29.328125 L 18.132812 -28.867188 L 18.335938 -28.25 L 18.335938 -27.375 L 18.234375 -26.042969 L 18.027344 -24.601562 L 17.824219 -23.730469 L 17.617188 -23.265625 L 17.515625 -22.804688 L 17.257812 -22.085938 L 17.050781 -21.777344 L 16.691406 -21.214844 L 16.128906 -20.699219 L 15.304688 -20.082031 L 14.945312 -19.929688 L 13.972656 -19.828125 L 13.40625 -19.722656 Z M 12.070312 -19.722656 "/></g></g></g></svg>