<svg xmlns="http://www.w3.org/2000/svg" xmlns:xlink="http://www.w3.org/1999/xlink" width="300" zoomAndPan="magnify" viewBox="0 0 224.87999 77.249999" height="103" preserveAspectRatio="xMidYMid meet" version="1.0"><defs><g/><clipPath id="883d5ebff5"><path d="M 2 1 L 53 1 L 53 76.507812 L 2 76.507812 Z M 2 1 " clip-rule="nonzero"/></clipPath></defs><g fill="#ffffff" fill-opacity="1"><g transform="translate(55.987956, 69.404062)"><g><path d="M 29.964844 -0.714844 C 27.222656 -6.804688 24.257812 -12.84375 21.515625 -19.042969 C 25.90625 -20.636719 29.582031 -24.148438 29.582031 -30.84375 C 29.582031 -43.796875 17.234375 -43.90625 14.761719 -43.90625 L 0.546875 -43.90625 C 0.273438 -43.90625 0 -43.632812 0 -43.414062 L 0 -35.949219 L 14.761719 -35.949219 C 16.082031 -35.949219 21.238281 -35.671875 21.238281 -30.84375 C 21.238281 -26.015625 16.574219 -25.792969 14.761719 -25.792969 L 0 -25.792969 L 0 -0.492188 C 0 -0.273438 0.273438 0 0.546875 0 L 7.738281 0 C 8.066406 0 8.34375 -0.273438 8.34375 -0.492188 L 8.34375 -17.726562 L 13.0625 -17.726562 L 21.074219 -0.328125 C 21.128906 -0.164062 21.460938 0 21.625 0 L 29.472656 0 C 29.910156 0 30.128906 -0.328125 29.964844 -0.714844 Z M 29.964844 -0.714844 "/></g></g></g><g fill="#ffffff" fill-opacity="1"><g transform="translate(87.545469, 69.404062)"><g><path d="M 25.246094 -21.84375 C 25.246094 -24.148438 23.433594 -26.015625 21.128906 -26.015625 C 18.824219 -26.015625 17.011719 -24.148438 17.011719 -21.84375 C 17.011719 -19.59375 18.824219 -17.726562 21.128906 -17.726562 C 23.433594 -17.726562 25.246094 -19.59375 25.246094 -21.84375 Z M 42.257812 -22.007812 C 42.257812 -32.929688 35.179688 -43.90625 21.183594 -43.90625 C 6.96875 -43.90625 0 -32.929688 0 -22.007812 C 0 -11.03125 6.96875 0 21.183594 0 C 35.179688 0 42.257812 -11.03125 42.257812 -22.007812 Z M 34.027344 -21.84375 C 34.027344 -14.761719 29.691406 -7.683594 21.183594 -7.683594 C 12.566406 -7.683594 8.289062 -14.761719 8.289062 -21.84375 C 8.289062 -29.03125 12.566406 -36.167969 21.183594 -36.167969 C 29.691406 -36.167969 34.027344 -29.03125 34.027344 -21.84375 Z M 34.027344 -21.84375 "/></g></g></g><g fill="#ffffff" fill-opacity="1"><g transform="translate(131.89063, 69.404062)"><g><path d="M 33.476562 -35.839844 L 33.476562 -43.414062 C 33.476562 -43.632812 33.257812 -43.90625 32.875 -43.90625 L 25.738281 -43.90625 C 14.816406 -43.90625 0 -40.722656 0 -21.953125 C 0 -2.46875 14.984375 0 25.738281 0 L 32.875 0 C 33.257812 0 33.476562 -0.273438 33.476562 -0.492188 L 33.476562 -27.386719 L 16.628906 -27.386719 L 16.628906 -18.988281 L 25.082031 -18.988281 L 25.082031 -8.011719 C 15.53125 -7.519531 8.453125 -11.523438 8.453125 -21.953125 C 8.453125 -35.507812 19.757812 -36.058594 25.082031 -35.839844 Z M 33.476562 -35.839844 "/></g></g></g><g fill="#ffffff" fill-opacity="1"><g transform="translate(167.070393, 69.404062)"><g><path d="M 20.140625 -24.367188 C 17.011719 -25.851562 13.941406 -25.851562 13.664062 -25.851562 C 10.867188 -25.851562 8.175781 -27.496094 8.175781 -30.679688 C 8.175781 -34.191406 10.648438 -36.003906 13.664062 -36.003906 C 16.519531 -36.003906 18.933594 -34.519531 19.042969 -31.394531 C 19.042969 -31.226562 19.320312 -30.953125 19.648438 -30.953125 L 26.507812 -30.953125 C 26.890625 -30.953125 27.167969 -31.226562 27.113281 -31.394531 C 27.003906 -38.855469 21.183594 -43.90625 13.664062 -43.90625 C 6.640625 -43.90625 0 -38.910156 0 -30.679688 C 0 -25.574219 2.578125 -21.679688 7.132812 -19.59375 C 10.316406 -18.109375 13.28125 -18.109375 13.664062 -18.109375 C 16.136719 -18 19.152344 -16.027344 19.152344 -12.789062 C 19.152344 -9.878906 16.574219 -7.902344 13.664062 -7.902344 C 13.664062 -7.902344 13.664062 -7.902344 13.609375 -7.902344 L 13.609375 0 C 13.664062 0 13.664062 0 13.664062 0 C 20.691406 0 27.277344 -4.554688 27.277344 -12.789062 C 27.277344 -17.945312 24.753906 -22.226562 20.140625 -24.367188 Z M 20.140625 -24.367188 "/></g></g></g><g fill="#ffffff" fill-opacity="1"><g transform="translate(195.719126, 69.404062)"><g><path d="M 9.054688 -27.988281 L 9.054688 -0.492188 C 9.054688 -0.273438 9.273438 0 9.660156 0 L 16.738281 0 C 17.125 0 17.398438 -0.273438 17.398438 -0.492188 L 17.398438 -27.988281 Z M 0.605469 -36.386719 L 25.792969 -36.386719 C 26.179688 -36.386719 26.398438 -36.605469 26.398438 -36.882812 L 26.398438 -43.414062 C 26.398438 -43.632812 26.179688 -43.90625 25.792969 -43.90625 L 0.605469 -43.90625 C 0.273438 -43.90625 0 -43.632812 0 -43.414062 L 0 -36.882812 C 0 -36.605469 0.273438 -36.386719 0.605469 -36.386719 Z M 0.605469 -36.386719 "/></g></g></g><g clip-path="url(#883d5ebff5)"><g fill="#ffffff" fill-opacity="1"><g transform="translate(-0.808499, 75.936064)"><g><path d="M 8.304688 0.105469 L 16.820312 0.105469 L 17.566406 0 L 17.886719 -1.277344 L 17.992188 -2.128906 L 18.101562 -3.085938 L 18.417969 -3.9375 L 18.527344 -4.683594 L 18.738281 -5.324219 L 18.84375 -6.070312 L 18.84375 -6.921875 L 19.269531 -7.558594 L 19.269531 -9.050781 L 19.589844 -10.648438 L 19.589844 -11.710938 L 19.910156 -12.457031 L 20.015625 -13.203125 L 20.335938 -14.480469 L 20.546875 -15.226562 L 20.761719 -16.503906 L 21.082031 -17.460938 L 21.398438 -18.953125 L 21.398438 -19.589844 L 21.507812 -20.335938 L 21.71875 -20.972656 L 21.824219 -21.71875 L 21.933594 -22.359375 L 22.039062 -23.742188 L 22.253906 -24.273438 L 22.359375 -25.660156 L 22.679688 -26.511719 L 22.785156 -27.257812 L 22.785156 -27.46875 L 24.382812 -27.363281 L 26.722656 -27.363281 L 28.746094 -27.257812 L 31.726562 -27.46875 L 33.21875 -27.683594 L 34.601562 -27.789062 L 35.878906 -28 L 37.582031 -28.535156 L 38.96875 -29.171875 L 40.03125 -29.492188 L 41.523438 -30.238281 L 42.054688 -30.875 L 43.4375 -31.941406 L 43.972656 -32.6875 L 44.71875 -33.75 L 45.675781 -34.601562 L 46.421875 -35.878906 L 47.058594 -36.519531 L 48.015625 -38.117188 L 48.761719 -39.394531 L 49.296875 -40.566406 L 50.148438 -42.585938 L 50.679688 -44.078125 L 51 -44.929688 L 51.316406 -46.421875 L 51.53125 -47.058594 L 51.636719 -47.699219 L 51.957031 -48.445312 L 52.0625 -49.296875 L 52.382812 -50.039062 L 52.59375 -51.53125 L 52.808594 -53.875 L 52.914062 -54.617188 L 53.128906 -55.789062 L 53.234375 -56.960938 L 53.128906 -58.132812 L 53.128906 -58.878906 L 53.023438 -60.472656 L 53.128906 -61.539062 L 52.808594 -62.710938 L 52.703125 -63.457031 L 52.59375 -64.625 L 52.167969 -65.796875 L 51.957031 -66.542969 L 51.316406 -67.925781 L 51 -68.777344 L 50.359375 -69.523438 L 49.722656 -70.375 L 49.296875 -70.910156 L 48.335938 -71.761719 L 46.953125 -72.503906 L 46.207031 -72.824219 L 45.460938 -73.355469 L 44.71875 -73.570312 L 43.011719 -73.890625 L 40.777344 -74.207031 L 39.394531 -74.421875 L 38.542969 -74.421875 L 36.945312 -74.632812 L 35.453125 -74.632812 L 33.855469 -74.527344 L 33.113281 -74.632812 L 25.976562 -74.632812 L 25.339844 -74.527344 L 23.957031 -74.632812 L 22.570312 -74.527344 L 17.035156 -74.527344 L 16.183594 -74.101562 L 15.757812 -72.71875 L 15.652344 -71.867188 L 15.332031 -70.375 L 15.226562 -69.523438 L 15.117188 -68.777344 L 14.691406 -67.074219 L 14.480469 -66.332031 L 14.480469 -65.691406 L 14.375 -64.945312 L 14.160156 -64.199219 L 14.160156 -63.347656 L 13.949219 -62.605469 L 13.839844 -61.324219 L 13.523438 -60.367188 L 13.203125 -58.878906 L 12.988281 -58.027344 L 12.882812 -56.109375 L 12.777344 -55.46875 L 12.457031 -54.085938 L 12.5625 -53.660156 L 12.457031 -52.488281 L 12.03125 -50.785156 L 11.925781 -50.148438 L 11.816406 -48.761719 L 11.5 -48.015625 L 11.285156 -47.273438 L 11.179688 -45.886719 L 11.179688 -44.609375 L 10.859375 -43.226562 L 10.539062 -41.523438 L 10.328125 -39.925781 L 10.222656 -39.074219 L 9.902344 -37.582031 L 9.796875 -36.945312 L 9.582031 -36.199219 L 9.476562 -35.5625 L 9.261719 -34.816406 L 9.15625 -33.324219 L 9.050781 -32.472656 L 8.730469 -31.726562 L 8.410156 -29.492188 L 8.304688 -27.894531 L 7.984375 -27.257812 L 7.984375 -26.511719 L 7.773438 -25.871094 L 7.773438 -24.699219 L 7.238281 -23.636719 L 7.238281 -23.105469 L 7.132812 -21.824219 L 7.027344 -21.1875 L 6.601562 -19.804688 L 6.386719 -19.164062 L 6.28125 -18.417969 L 6.175781 -17.035156 L 5.855469 -16.394531 L 5.429688 -13.949219 L 5.324219 -13.308594 L 5.21875 -12.5625 L 4.898438 -11.285156 L 4.792969 -10.539062 L 4.472656 -9.15625 L 4.152344 -7.558594 L 3.832031 -6.070312 L 3.832031 -5.429688 L 3.511719 -3.9375 L 3.621094 -3.195312 L 3.300781 -2.554688 L 3.300781 -0.53125 L 3.9375 0 L 5.855469 -0.105469 L 6.601562 0 Z M 25.019531 -40.882812 L 25.125 -41.84375 L 25.445312 -43.332031 L 25.445312 -44.292969 L 25.976562 -46.953125 L 26.191406 -47.910156 L 26.191406 -48.761719 L 26.296875 -50.039062 L 26.617188 -51.742188 L 26.832031 -52.808594 L 27.148438 -54.9375 L 27.46875 -56.214844 L 27.683594 -56.960938 L 27.894531 -58.769531 L 28 -59.835938 L 28.214844 -60.367188 L 28.746094 -61.644531 L 29.492188 -61.859375 L 31.941406 -61.964844 L 34.816406 -61.859375 L 35.773438 -61.644531 L 36.945312 -60.792969 L 37.582031 -59.835938 L 38.007812 -58.558594 L 38.007812 -56.746094 L 37.796875 -53.980469 L 37.371094 -51 L 36.945312 -49.1875 L 36.519531 -48.230469 L 36.304688 -47.273438 L 35.773438 -45.78125 L 35.347656 -45.144531 L 34.601562 -43.972656 L 33.429688 -42.90625 L 31.726562 -41.628906 L 30.984375 -41.308594 L 28.960938 -41.097656 L 27.789062 -40.882812 Z M 25.019531 -40.882812 "/></g></g></g></g></svg>