<svg xmlns="http://www.w3.org/2000/svg" xmlns:xlink="http://www.w3.org/1999/xlink" width="50" zoomAndPan="magnify" viewBox="0 0 37.5 37.499999" height="50" preserveAspectRatio="xMidYMid meet" version="1.0"><defs><clipPath id="6bc78358d2"><path d="M 0 0 L 36.75 0 L 36.75 37.007812 L 0 37.007812 Z M 0 0 " clip-rule="nonzero"/></clipPath></defs><g clip-path="url(#6bc78358d2)"><path fill="#ffac42" d="M 18.425781 37.4375 C 18.207031 37.441406 17.992188 37.40625 17.78125 37.339844 L 5.566406 33.296875 C 5.199219 33.175781 4.890625 32.96875 4.644531 32.671875 C 4.394531 32.375 4.246094 32.039062 4.191406 31.65625 L 0.121094 2.359375 C 0.0820312 2.070312 0.101562 1.785156 0.1875 1.507812 C 0.269531 1.226562 0.410156 0.976562 0.601562 0.753906 C 0.796875 0.535156 1.027344 0.363281 1.292969 0.242188 C 1.5625 0.121094 1.84375 0.0625 2.136719 0.0625 L 34.714844 0.0625 C 35.007812 0.0625 35.289062 0.121094 35.558594 0.242188 C 35.824219 0.363281 36.054688 0.535156 36.25 0.753906 C 36.441406 0.972656 36.582031 1.222656 36.664062 1.503906 C 36.75 1.785156 36.769531 2.066406 36.730469 2.355469 L 32.660156 31.652344 C 32.605469 32.035156 32.457031 32.375 32.207031 32.671875 C 31.960938 32.964844 31.652344 33.175781 31.285156 33.296875 L 19.070312 37.339844 C 18.859375 37.40625 18.644531 37.441406 18.425781 37.4375 Z M 8.054688 29.863281 L 18.425781 33.289062 L 28.796875 29.855469 L 32.378906 4.101562 L 4.480469 4.101562 Z M 8.054688 29.863281 " fill-opacity="1" fill-rule="nonzero"/></g><path fill="#ffac42" d="M 15.371094 28.347656 C 15.050781 28.347656 14.746094 28.277344 14.460938 28.132812 L 10.390625 26.113281 C 10.148438 25.992188 9.9375 25.832031 9.761719 25.628906 C 9.582031 25.425781 9.453125 25.199219 9.367188 24.945312 C 9.28125 24.691406 9.246094 24.429688 9.265625 24.164062 C 9.285156 23.894531 9.355469 23.640625 9.476562 23.402344 C 9.597656 23.160156 9.761719 22.953125 9.964844 22.777344 C 10.167969 22.601562 10.398438 22.472656 10.65625 22.386719 C 10.910156 22.304688 11.175781 22.269531 11.445312 22.289062 C 11.714844 22.308594 11.96875 22.378906 12.210938 22.5 L 13.335938 23.058594 L 13.335938 12.183594 L 9.265625 12.183594 C 8.992188 12.183594 8.734375 12.132812 8.484375 12.03125 C 8.234375 11.925781 8.015625 11.78125 7.824219 11.59375 C 7.632812 11.402344 7.484375 11.183594 7.382812 10.9375 C 7.28125 10.6875 7.226562 10.429688 7.226562 10.164062 C 7.226562 9.894531 7.28125 9.636719 7.382812 9.390625 C 7.484375 9.140625 7.632812 8.925781 7.824219 8.734375 C 8.015625 8.546875 8.234375 8.398438 8.484375 8.296875 C 8.734375 8.195312 8.992188 8.144531 9.265625 8.144531 L 15.371094 8.144531 C 15.640625 8.144531 15.902344 8.195312 16.152344 8.296875 C 16.402344 8.398438 16.621094 8.546875 16.8125 8.734375 C 17.003906 8.925781 17.148438 9.140625 17.253906 9.390625 C 17.355469 9.636719 17.40625 9.894531 17.40625 10.164062 L 17.40625 26.328125 C 17.40625 26.59375 17.355469 26.851562 17.253906 27.101562 C 17.148438 27.347656 17.003906 27.566406 16.8125 27.753906 C 16.621094 27.945312 16.402344 28.089844 16.152344 28.191406 C 15.902344 28.296875 15.640625 28.347656 15.371094 28.347656 Z M 15.371094 28.347656 " fill-opacity="1" fill-rule="nonzero"/><path fill="#ffac42" d="M 21.480469 28.347656 C 21.230469 28.347656 20.992188 28.304688 20.757812 28.214844 C 20.527344 28.128906 20.316406 28.003906 20.132812 27.839844 C 19.945312 27.675781 19.796875 27.484375 19.679688 27.265625 C 19.566406 27.050781 19.492188 26.816406 19.460938 26.574219 C 19.429688 26.328125 19.445312 26.085938 19.503906 25.847656 C 19.5625 25.609375 19.664062 25.386719 19.804688 25.183594 C 19.945312 24.980469 20.117188 24.808594 20.320312 24.667969 C 20.523438 24.527344 20.746094 24.425781 20.988281 24.367188 L 23.734375 23.6875 L 24.222656 20.265625 L 22.496094 20.265625 C 22.09375 20.265625 21.703125 20.1875 21.328125 20.035156 C 20.953125 19.878906 20.625 19.660156 20.339844 19.378906 C 20.050781 19.09375 19.832031 18.765625 19.675781 18.394531 C 19.519531 18.023438 19.445312 17.636719 19.445312 17.234375 L 19.445312 11.171875 C 19.445312 10.773438 19.519531 10.386719 19.675781 10.011719 C 19.832031 9.640625 20.050781 9.316406 20.339844 9.03125 C 20.625 8.746094 20.953125 8.527344 21.328125 8.375 C 21.703125 8.21875 22.09375 8.144531 22.496094 8.144531 L 27.589844 8.144531 C 27.859375 8.144531 28.117188 8.195312 28.367188 8.296875 C 28.617188 8.398438 28.835938 8.546875 29.027344 8.734375 C 29.21875 8.925781 29.367188 9.140625 29.46875 9.390625 C 29.574219 9.636719 29.625 9.894531 29.625 10.164062 C 29.625 10.429688 29.574219 10.6875 29.46875 10.9375 C 29.367188 11.183594 29.21875 11.402344 29.027344 11.59375 C 28.835938 11.78125 28.617188 11.925781 28.367188 12.03125 C 28.117188 12.132812 27.859375 12.183594 27.589844 12.183594 L 23.515625 12.183594 L 23.515625 16.222656 L 25.394531 16.222656 C 25.800781 16.222656 26.191406 16.300781 26.5625 16.457031 C 26.9375 16.609375 27.269531 16.828125 27.554688 17.113281 C 27.839844 17.394531 28.0625 17.722656 28.214844 18.09375 C 28.371094 18.464844 28.449219 18.851562 28.449219 19.253906 C 28.449219 19.402344 28.4375 19.546875 28.417969 19.691406 L 27.566406 25.601562 C 27.507812 26.007812 27.339844 26.363281 27.0625 26.667969 C 26.785156 26.972656 26.449219 27.175781 26.046875 27.277344 L 21.972656 28.285156 C 21.8125 28.328125 21.648438 28.347656 21.480469 28.347656 Z M 24.386719 19.113281 Z M 24.386719 19.113281 " fill-opacity="1" fill-rule="nonzero"/></svg>